<svg width="161" height="161" viewBox="0 0 161 161" fill="none" xmlns="http://www.w3.org/2000/svg">
<path d="M131.541 92.5117C131.857 91.1889 132.361 90.0095 133.052 88.9737C133.74 87.9534 134.563 87.1219 135.522 86.479C136.497 85.8398 137.562 85.4112 138.716 85.1931C139.867 84.9906 141.056 85.0361 142.286 85.3295C143.531 85.6266 144.613 86.1233 145.533 86.8197C146.464 87.5355 147.213 88.3967 147.778 89.4035C148.36 90.4141 148.727 91.5297 148.88 92.7505C149.029 93.9869 148.945 95.2665 148.63 96.5894C148.31 97.9278 147.807 99.1072 147.119 100.127C146.432 101.148 145.6 101.977 144.625 102.617C143.666 103.259 142.611 103.682 141.461 103.885C140.322 104.106 139.13 104.069 137.885 103.772C136.656 103.478 135.575 102.974 134.644 102.258C133.709 101.558 132.951 100.703 132.37 99.692C131.804 98.6852 131.444 97.5714 131.292 96.3506C131.139 95.1298 131.222 93.8502 131.541 92.5117ZM126.507 96.9608C126.689 96.1982 126.936 95.5087 127.248 94.8921C127.544 94.2719 127.937 93.6914 128.428 93.1506C128.915 92.6253 129.542 92.1005 130.309 91.5761C131.06 91.048 131.978 90.4774 133.061 89.8642L133.103 95.8946C132.438 96.1307 131.918 96.3439 131.544 96.5342C131.17 96.7245 130.89 96.9293 130.706 97.1486C130.519 97.3834 130.386 97.6643 130.308 97.9911C130.115 98.8004 130.285 99.6387 130.818 100.506L127.449 102.219C126.342 100.721 126.028 98.9684 126.507 96.9608ZM136 93.5757C135.878 94.0893 135.858 94.5863 135.941 95.0666C136.02 95.5625 136.191 96.0147 136.456 96.4232C136.732 96.851 137.097 97.2177 137.55 97.5233C138.019 97.8326 138.573 98.0634 139.211 98.2157C139.849 98.3679 140.439 98.4101 140.982 98.3422C141.54 98.278 142.031 98.1155 142.455 97.8548C142.891 97.6134 143.257 97.2893 143.551 96.8826C143.842 96.4914 144.048 96.039 144.171 95.5254C144.293 95.0118 144.315 94.5071 144.236 94.0112C144.153 93.5309 143.974 93.0768 143.698 92.649C143.433 92.2405 143.066 91.8816 142.597 91.5722C142.144 91.2667 141.598 91.0377 140.96 90.8855C140.322 90.7332 139.724 90.6892 139.166 90.7534C138.623 90.8213 138.134 90.976 137.698 91.2174C137.274 91.4781 136.917 91.804 136.626 92.1952C136.331 92.602 136.123 93.0621 136 93.5757Z" fill="white"/>
<path d="M127.477 106.824L135.566 123.279L131.971 127.531L114.4 122.294L118.181 117.821L132.46 122.79L131.034 124.476L123.759 111.223L127.477 106.824ZM126.893 112.05L129.079 115.784L124.09 121.686L120.045 120.152L126.893 112.05Z" fill="white"/>
<path d="M110.154 125.001L111.663 128.136L107.954 142.014L106.473 140.542L115.318 136.285L117.223 140.243L103.88 146.664L102.371 143.529L106.08 129.651L107.56 131.123L98.153 135.65L96.2484 131.693L110.154 125.001Z" fill="white"/>
<path d="M92.1143 133.242L85.2268 150.234L79.6609 150.384L71.8657 133.789L77.7196 133.631L83.5228 147.591L81.3156 147.651L86.3564 133.397L92.1143 133.242ZM87.827 136.287L86.4978 140.404L78.7726 140.613L77.2229 136.573L87.827 136.287Z" fill="white"/>
<path d="M57.9662 128.197C59.1938 128.783 60.2418 129.522 61.1103 130.414C61.9643 131.3 62.6053 132.279 63.0334 133.352C63.4546 134.439 63.6512 135.569 63.6232 136.744C63.5808 137.911 63.2876 139.065 62.7437 140.206C62.1929 141.361 61.4808 142.316 60.6076 143.069C59.713 143.831 58.7143 144.383 57.6114 144.725C56.5017 145.083 55.334 145.208 54.1082 145.103C52.8679 144.99 51.634 144.641 50.4064 144.056C49.1643 143.464 48.1163 142.725 47.2623 141.839C46.4083 140.953 45.7707 139.967 45.3495 138.88C44.9213 137.807 44.7285 136.687 44.771 135.52C44.7921 134.36 45.0781 133.203 45.6289 132.047C46.1728 130.906 46.8921 129.955 47.7866 129.194C48.6668 128.426 49.6617 127.863 50.7714 127.506C51.8743 127.163 53.0386 127.045 54.2644 127.151C55.4901 127.256 56.7241 127.605 57.9662 128.197ZM54.6678 122.345C55.3755 122.682 55.9982 123.067 56.536 123.501C57.0806 123.92 57.566 124.426 57.9923 125.019C58.4041 125.606 58.7862 126.328 59.1388 127.188C59.4982 128.033 59.8644 129.049 60.2374 130.237L54.3317 129.017C54.2398 128.318 54.1399 127.765 54.0321 127.359C53.9243 126.953 53.7824 126.637 53.6064 126.412C53.4159 126.179 53.169 125.99 52.8657 125.846C52.1147 125.488 51.2593 125.479 50.2996 125.819L49.3291 122.166C51.0251 121.397 52.8047 121.456 54.6678 122.345ZM55.9936 132.335C55.517 132.108 55.0352 131.985 54.5481 131.965C54.0467 131.939 53.5686 132.012 53.1138 132.186C52.6377 132.366 52.2028 132.646 51.8092 133.026C51.4087 133.42 51.0673 133.913 50.785 134.505C50.5027 135.097 50.338 135.666 50.291 136.211C50.2371 136.77 50.2933 137.284 50.4596 137.753C50.6045 138.23 50.8451 138.655 51.1814 139.028C51.5031 139.394 51.9023 139.691 52.3789 139.918C52.8556 140.145 53.3446 140.272 53.8461 140.298C54.3331 140.318 54.8146 140.237 55.2907 140.056C55.7455 139.883 56.1732 139.6 56.5737 139.206C56.9673 138.826 57.3053 138.34 57.5876 137.748C57.8698 137.156 58.0379 136.58 58.0918 136.021C58.1388 135.476 58.0899 134.965 57.9449 134.489C57.7787 134.019 57.5346 133.602 57.2129 133.236C56.8766 132.863 56.4702 132.563 55.9936 132.335Z" fill="white"/>
<path d="M35.5098 113.926C35.9493 114.517 36.211 115.15 36.2949 115.825C36.366 116.51 36.2628 117.175 35.9852 117.821C35.7076 118.466 35.2672 119.013 34.664 119.462C34.0479 119.921 33.3973 120.186 32.7123 120.257C32.0272 120.328 31.3732 120.226 30.7502 119.952C30.1272 119.678 29.5959 119.245 29.1565 118.655C28.7171 118.065 28.4554 117.432 28.3714 116.756C28.2779 116.068 28.3636 115.406 28.6283 114.77C28.8835 114.121 29.3191 113.568 29.9352 113.109C30.5384 112.66 31.1938 112.402 31.9012 112.334C32.5991 112.253 33.2708 112.352 33.9162 112.629C34.5392 112.903 35.0704 113.336 35.5098 113.926Z" fill="white"/>
<path d="M29.5947 97.8068L13.0803 100.891L11.5953 92.9408C11.3074 91.3995 11.3109 90.0234 11.6056 88.8127C11.8974 87.5863 12.4578 86.5783 13.2869 85.7886C14.1003 85.0019 15.144 84.4896 16.418 84.2516C17.6919 84.0137 18.8502 84.1148 19.8927 84.5548C20.9195 84.9978 21.7824 85.74 22.4815 86.7814C23.1776 87.807 23.6697 89.0905 23.9575 90.6318L24.8653 95.4918L22.1142 93.442L28.5548 92.2391L29.5947 97.8068ZM27.7484 87.9217L22.4904 93.1032L21.3887 87.2052L26.638 81.9765L27.7484 87.9217ZM22.7276 93.3275L20.6659 96.2761L19.8243 91.77C19.6803 90.9994 19.4016 90.4655 18.988 90.1684C18.5715 89.8555 18.0644 89.7549 17.4667 89.8665C16.869 89.9782 16.4324 90.255 16.1569 90.6971C15.8785 91.1235 15.8112 91.722 15.9552 92.4927L16.7968 96.9988L13.8098 94.9931L22.7276 93.3275Z" fill="white"/>
<path d="M17.7805 68.8464L19.3795 61.5312L23.3653 62.4024L21.7664 69.7177L17.7805 68.8464ZM24.0054 69.814L25.7992 61.6078L29.9726 62.52L26.9899 76.1658L10.5774 72.5784L13.4935 59.2374L17.667 60.1496L15.9399 68.051L24.0054 69.814Z" fill="white"/>
<path d="M32.5253 56.3082L18.7965 46.6252L23.4581 40.0157C24.3619 38.7344 25.3503 37.7771 26.4235 37.1439C27.5059 36.4976 28.6191 36.1961 29.7633 36.2395C30.8944 36.2737 31.9894 36.6642 33.0485 37.4112C34.1076 38.1582 34.843 39.0587 35.2548 40.1127C35.6666 41.1667 35.7562 42.3166 35.5237 43.5623C35.2874 44.7857 34.7173 46.0381 33.8136 47.3195L30.964 51.3597L30.4356 47.9032L35.7898 51.6796L32.5253 56.3082ZM30.9455 48.2629L27.3945 48.8421L30.0366 45.0961C30.4885 44.4554 30.6766 43.8833 30.6011 43.3797C30.5348 42.863 30.2532 42.4294 29.7563 42.079C29.2595 41.7286 28.7566 41.6088 28.2476 41.7197C27.7478 41.8176 27.272 42.1868 26.8201 42.8275L24.1781 46.5735L23.532 43.0341L30.9455 48.2629Z" fill="white"/>
<path d="M53.2639 35.3911C51.0509 36.7095 48.9696 37.1392 47.02 36.6803C45.0705 36.2214 43.4529 34.9129 42.1673 32.7548L37.4384 24.8166L42.3044 21.9179L46.9474 29.7117C47.6025 30.8114 48.2685 31.4762 48.9456 31.7061C49.6144 31.9222 50.2856 31.8296 50.9591 31.4284C51.6464 31.019 52.0474 30.4728 52.1621 29.7899C52.2823 29.0851 52.0149 28.1828 51.3598 27.0832L46.7168 19.2893L51.5004 16.4397L56.2293 24.3779C57.5149 26.536 57.8953 28.5814 57.3706 30.5143C56.8459 32.4472 55.477 34.0728 53.2639 35.3911Z" fill="white"/>
<path d="M66.5402 28.6859L64.7946 11.9769L73.722 11.0442C76.0294 10.8031 77.7754 11.039 78.9599 11.7518C80.1427 12.4487 80.8006 13.4336 80.9336 14.7067C81.0217 15.5501 80.862 16.3309 80.4544 17.0492C80.0611 17.7498 79.4388 18.3377 78.5875 18.8127C77.7363 19.2877 76.6582 19.5934 75.3533 19.7297L75.696 18.3908C77.0009 18.2545 78.142 18.3203 79.1191 18.5882C80.1121 18.8545 80.8998 19.3111 81.4822 19.9581C82.0788 20.5875 82.4279 21.3876 82.5293 22.3583C82.6806 23.8064 82.1939 24.9995 81.0693 25.9374C79.9605 26.8737 78.2525 27.4623 75.945 27.7034L66.5402 28.6859ZM71.6666 24.1688L75.0561 23.8147C75.6768 23.7499 76.1266 23.5903 76.4057 23.3359C76.7007 23.0798 76.8257 22.737 76.7809 22.3073C76.736 21.8777 76.5428 21.5681 76.2012 21.3785C75.8756 21.1873 75.4025 21.1241 74.7818 21.189L71.0104 21.583L70.6213 17.8593L73.629 17.5451C74.2655 17.4786 74.7162 17.3269 74.981 17.0901C75.2601 16.8357 75.3789 16.5096 75.3373 16.1118C75.2941 15.698 75.1105 15.4035 74.7865 15.2282C74.4785 15.0513 74.0062 14.9961 73.3696 15.0626L70.7439 15.3369L71.6666 24.1688Z" fill="white"/>
<path d="M89.1234 27.8976L93.824 11.7686L99.2618 13.3534L95.7901 25.2658L103.071 27.3878L101.842 31.6044L89.1234 27.8976Z" fill="white"/>
<path d="M105.677 33.8957L114.591 19.6557L119.392 22.6611L110.478 36.9011L105.677 33.8957Z" fill="white"/>
<path d="M121.033 47.2247C120.162 46.2014 119.511 45.1164 119.081 43.9696C118.673 42.8247 118.493 41.6752 118.54 40.5213C118.597 39.3796 118.884 38.2845 119.399 37.2362C119.914 36.1879 120.665 35.2436 121.652 34.4034C122.639 33.5631 123.691 32.9721 124.808 32.6303C125.925 32.2885 127.051 32.1802 128.187 32.3053C129.334 32.4426 130.434 32.8088 131.487 33.4039C132.563 34.0009 133.537 34.811 134.408 35.8342C135.477 37.0889 136.201 38.3841 136.582 39.7199C136.974 41.0679 137.025 42.4113 136.736 43.7501L131.987 43.0972C132.141 42.315 132.149 41.5835 132.01 40.9028C131.894 40.2238 131.593 39.5981 131.105 39.0256C130.721 38.5749 130.301 38.2291 129.843 37.9881C129.386 37.7471 128.903 37.612 128.394 37.5826C127.896 37.5654 127.384 37.6548 126.858 37.851C126.343 38.0368 125.843 38.3372 125.355 38.7521C124.868 39.1671 124.486 39.6188 124.208 40.1073C123.943 40.5854 123.779 41.0717 123.717 41.5661C123.665 42.0727 123.721 42.571 123.887 43.0609C124.052 43.5508 124.326 44.0211 124.71 44.4718C125.197 45.0444 125.761 45.447 126.401 45.6799C127.063 45.9146 127.792 46.0184 128.589 45.9915L128.477 50.7836C127.122 50.8452 125.804 50.5806 124.523 49.99C123.265 49.4011 122.102 48.4793 121.033 47.2247Z" fill="white"/>
<path d="M134.396 66.6107C134.215 65.8975 134.214 65.2126 134.393 64.556C134.588 63.8954 134.937 63.3195 135.439 62.8283C135.941 62.3371 136.557 61.9987 137.285 61.813C138.03 61.6234 138.732 61.6261 139.393 61.821C140.053 62.016 140.619 62.3588 141.091 62.8496C141.563 63.3403 141.89 63.9423 142.071 64.6555C142.253 65.3687 142.254 66.0536 142.075 66.7103C141.899 67.3824 141.568 67.9621 141.081 68.4493C140.598 68.9521 139.985 69.2983 139.241 69.4879C138.512 69.6735 137.808 69.6631 137.127 69.4566C136.451 69.2656 135.868 68.9189 135.377 68.4166C134.905 67.9259 134.578 67.3239 134.396 66.6107Z" fill="white"/>
</svg>
